<svg xmlns="http://www.w3.org/2000/svg" viewBox="0 0 64 48"><rect width="64" height="48" rx="12" fill="#08080c"/><path d="M31.8 41.2 8.5 19.4C1.8 13.1 6.2 2 15.4 2c5.2 0 9.1 2.7 12.2 6.2l4.2 4.7 4.2-4.7C39.1 4.7 43 2 48.2 2c9.2 0 13.6 11.1 6.9 17.4L31.8 41.2Z" fill="none" stroke="#a56aff" stroke-width="3"/><path d="M20 8.5c3.5 0 6.4 2.1 9 5.1l2.8 3.2 2.8-3.2c2.6-3 5.5-5.1 9-5.1 6.1 0 9.1 7.4 4.6 11.6L31.8 35.6 15.4 20.1C10.9 15.9 13.9 8.5 20 8.5Z" fill="none" stroke="#8b5cf6" stroke-width="3"/></svg>